<?xml version="1.0" encoding="utf-8"?>
<!-- Generator: Adobe Illustrator 19.2.1, SVG Export Plug-In . SVG Version: 6.00 Build 0)  -->
<svg version="1.1" id="Layer_1" xmlns="http://www.w3.org/2000/svg" xmlns:xlink="http://www.w3.org/1999/xlink" x="0px" y="0px"
	 viewBox="0 0 28 26" style="enable-background:new 0 0 28 26;" xml:space="preserve">

<g>
	<path class="st0" d="M27.1,24.3H0.9c-0.5,0-0.9,0.4-0.9,0.9C0,25.6,0.4,26,0.9,26h26.3c0.5,0,0.9-0.4,0.9-0.9
		C28,24.7,27.6,24.3,27.1,24.3z"/>
	<path class="st0" d="M2.6,15.6c0.2,0,0.4,0,0.6-0.1l2.6,3.6c-0.4,0.4-0.6,1-0.6,1.6c0,1.4,1.2,2.6,2.6,2.6s2.6-1.2,2.6-2.6
		c0-0.7-0.3-1.4-0.8-1.9l3.2-11.1c0.1,0,0.1,0,0.2,0c0.2,0,0.4,0,0.6-0.1l3.5,4.5c-0.3,0.4-0.6,1-0.6,1.6c0,1.4,1.2,2.6,2.6,2.6
		s2.6-1.2,2.6-2.6c0-0.6-0.2-1.2-0.6-1.7l3.6-7c0.2,0,0.3,0,0.5,0C26.8,5.2,28,4,28,2.6S26.8,0,25.4,0s-2.6,1.2-2.6,2.6
		c0,0.6,0.2,1.2,0.6,1.7l-3.6,7c-0.2,0-0.3,0-0.5,0c-0.2,0-0.4,0-0.6,0.1l-3.5-4.5c0.3-0.4,0.6-1,0.6-1.6c0-1.4-1.2-2.6-2.6-2.6
		s-2.6,1.2-2.6,2.6c0,0.7,0.3,1.4,0.8,1.9L8.1,18.2c-0.1,0-0.1,0-0.2,0c-0.2,0-0.4,0-0.6,0.1l-2.6-3.6c0.4-0.4,0.6-1,0.6-1.6
		c0-1.4-1.2-2.6-2.6-2.6S0,11.6,0,13C0,14.4,1.2,15.6,2.6,15.6z M19.3,14.7c-0.5,0-0.9-0.4-0.9-0.9c0-0.5,0.4-0.9,0.9-0.9
		c0.5,0,0.9,0.4,0.9,0.9C20.1,14.3,19.7,14.7,19.3,14.7z M25.4,1.7c0.5,0,0.9,0.4,0.9,0.9c0,0.5-0.4,0.9-0.9,0.9
		c-0.5,0-0.9-0.4-0.9-0.9C24.5,2.1,24.9,1.7,25.4,1.7z M13.1,4.3c0.5,0,0.9,0.4,0.9,0.9c0,0.5-0.4,0.9-0.9,0.9
		c-0.5,0-0.9-0.4-0.9-0.9C12.3,4.7,12.6,4.3,13.1,4.3z M7.9,21.7c-0.5,0-0.9-0.4-0.9-0.9c0-0.2,0.1-0.4,0.2-0.6L7.6,20
		c0.1,0,0.2-0.1,0.3-0.1c0.5,0,0.9,0.4,0.9,0.9C8.8,21.3,8.4,21.7,7.9,21.7z M2.6,12.1c0.5,0,0.9,0.4,0.9,0.9c0,0.2-0.1,0.4-0.2,0.6
		l-0.4,0.3c-0.1,0-0.2,0.1-0.3,0.1c-0.5,0-0.9-0.4-0.9-0.9C1.8,12.5,2.1,12.1,2.6,12.1z"/>
</g>
</svg>
