<?xml version="1.0" encoding="utf-8"?>
<!-- Generator: Adobe Illustrator 19.2.1, SVG Export Plug-In . SVG Version: 6.00 Build 0)  -->
<svg version="1.1" id="Layer_1" xmlns="http://www.w3.org/2000/svg" xmlns:xlink="http://www.w3.org/1999/xlink" x="0px" y="0px"
	 viewBox="0 0 15 28" style="enable-background:new 0 0 15 28;" xml:space="preserve">
<g>
	<path class="st0" d="M3.1,28c-0.1,0-0.3,0-0.4-0.1c-0.4-0.2-0.6-0.6-0.5-1l1.5-7.7h-2c-0.3,0-0.6-0.1-0.7-0.4
		C0.9,18.6,0.8,18.3,1,18l2.5-5.8H0.9c-0.3,0-0.5-0.1-0.7-0.3C0,11.7,0,11.4,0,11.1L3.1,0.6C3.2,0.3,3.6,0,4,0h10.1
		c0.3,0,0.6,0.2,0.8,0.4C15,0.7,15,1,14.9,1.3l-3.7,6.6h2.5c0.3,0,0.6,0.2,0.8,0.4c0.2,0.3,0.1,0.6,0,0.9l-3.5,5.7h1.4
		c0.3,0,0.6,0.2,0.8,0.5c0.1,0.3,0.1,0.7-0.1,0.9L3.8,27.7C3.6,27.9,3.3,28,3.1,28z M3.1,17.5h1.7c0.3,0,0.5,0.1,0.7,0.3
		c0.2,0.2,0.2,0.5,0.2,0.7l-1,5.3l5.9-7.2H9.4c-0.3,0-0.6-0.2-0.8-0.4c-0.2-0.3-0.1-0.6,0-0.9l3.5-5.7H9.7c-0.3,0-0.6-0.2-0.8-0.4
		c-0.2-0.3-0.2-0.6,0-0.9l3.7-6.6h-8l-2.6,8.8h2.7c0.3,0,0.6,0.1,0.7,0.4c0.2,0.2,0.2,0.6,0.1,0.8L3.1,17.5z"/>
</g>
</svg>
