<svg id="Layer_1" xmlns="http://www.w3.org/2000/svg" viewBox="0 0 28 26"><path class="st0" d="M27.1 24.3H.9c-.5 0-.9.4-.9.9 0 .4.4.8.9.8h26.3c.5 0 .9-.4.9-.9-.1-.4-.5-.8-1-.8zM2.6 15.6c.2 0 .4 0 .6-.1l2.6 3.6c-.4.4-.6 1-.6 1.6 0 1.4 1.2 2.6 2.6 2.6s2.6-1.2 2.6-2.6c0-.7-.3-1.4-.8-1.9l3.2-11.1h.2c.2 0 .4 0 .6-.1l3.5 4.5c-.3.4-.6 1-.6 1.6 0 1.4 1.2 2.6 2.6 2.6s2.6-1.2 2.6-2.6c0-.6-.2-1.2-.6-1.7l3.6-7h.5c1.6.2 2.8-1 2.8-2.4S26.8 0 25.4 0s-2.6 1.2-2.6 2.6c0 .6.2 1.2.6 1.7l-3.6 7h-.5c-.2 0-.4 0-.6.1l-3.5-4.5c.3-.4.6-1 .6-1.6 0-1.4-1.2-2.6-2.6-2.6s-2.6 1.2-2.6 2.6c0 .7.3 1.4.8 1.9l-3.3 11h-.2c-.2 0-.4 0-.6.1l-2.6-3.6c.4-.4.6-1 .6-1.6 0-1.4-1.2-2.6-2.6-2.6S0 11.6 0 13s1.2 2.6 2.6 2.6zm16.7-.9c-.5 0-.9-.4-.9-.9s.4-.9.9-.9.9.4.9.9c-.1.5-.5.9-.9.9zm6.1-13c.5 0 .9.4.9.9s-.4.9-.9.9-.9-.4-.9-.9.4-.9.9-.9zM13.1 4.3c.5 0 .9.4.9.9s-.4.9-.9.9-.9-.4-.9-.9c.1-.5.4-.9.9-.9zM7.9 21.7c-.5 0-.9-.4-.9-.9 0-.2.1-.4.2-.6l.4-.2c.1 0 .2-.1.3-.1.5 0 .9.4.9.9s-.4.9-.9.9zm-5.3-9.6c.5 0 .9.4.9.9 0 .2-.1.4-.2.6l-.4.3c-.1 0-.2.1-.3.1-.5 0-.9-.4-.9-.9.1-.6.4-1 .9-1z"/></svg>
