<svg id="Layer_1" xmlns="http://www.w3.org/2000/svg" viewBox="0 0 30 27"><path class="st0" d="M15.9 16.9V9.3c0-.5-.4-.9-.9-.9s-.9.4-.9.9v7.6c-.5.1-1 .4-1.4.8-1.3 1.3-1.3 3.3 0 4.6 1.3 1.3 3.4 1.3 4.6 0 1.3-1.3 1.3-3.3 0-4.6-.4-.4-.9-.7-1.4-.8zM16 21c-.5.5-1.4.5-2 0-.5-.5-.5-1.4 0-2 .5-.5 1.4-.5 2 0 .5.6.5 1.5 0 2zM15 6.5c.5 0 .9-.4.9-.9V3.7c0-.5-.4-.9-.9-.9s-.9.4-.9.9v1.9c0 .5.4.9.9.9zM5.6 14H3.8c-.5 0-.9.4-.9.9s.4.9.9.9h1.9c.5 0 .9-.4.9-.9s-.5-.9-1-.9zM26.3 14h-1.9c-.5 0-.9.4-.9.9s.4.9.9.9h1.9c.5 0 .9-.4.9-.9s-.4-.9-.9-.9zM23.6 6.3c-.4-.4-1-.4-1.3 0L21 7.7c-.4.4-.4 1 0 1.3.2.2.4.3.7.3.2 0 .5-.1.7-.3l1.3-1.3c.3-.4.3-1-.1-1.4zM7.7 6.3c-.4-.3-1-.3-1.3 0-.4.4-.4 1 0 1.4L7.7 9c.2.2.4.3.7.3s.5-.1.6-.3c.4-.4.4-1 0-1.3L7.7 6.3z"/><path class="st0" d="M15 0C6.7 0 0 6.7 0 14.9c0 4.7 2.2 9.1 6 11.9.2.1.4.2.6.2h16.9c.2 0 .4-.1.6-.2 3.8-2.8 6-7.2 6-11.9C30 6.7 23.3 0 15 0zm8.1 25.1H6.9c-3.2-2.5-5-6.2-5-10.2 0-7.2 5.9-13 13.1-13s13.1 5.8 13.1 13c0 4-1.8 7.7-5 10.2z"/></svg>
