<?xml version="1.0" encoding="utf-8"?>
<!-- Generator: Adobe Illustrator 19.2.1, SVG Export Plug-In . SVG Version: 6.00 Build 0)  -->
<svg version="1.1" id="Layer_1" xmlns="http://www.w3.org/2000/svg" xmlns:xlink="http://www.w3.org/1999/xlink" x="0px" y="0px"
	 viewBox="0 0 28 23" style="enable-background:new 0 0 28 23;" xml:space="preserve">

<g>
	<path class="st0" d="M7.8,3.5h19.3c0.5,0,0.9-0.4,0.9-0.9s-0.4-0.9-0.9-0.9H7.8c-0.5,0.1-0.9,0.5-0.9,1S7.3,3.5,7.8,3.5z"/>
	<path class="st0" d="M27,10.6H7.8c-0.5,0-0.9,0.4-0.9,0.9s0.4,0.9,0.9,0.9h19.3c0.5,0,0.9-0.4,0.9-0.9S27.5,10.6,27,10.6z"/>
	<path class="st0" d="M27,19.5H7.8c-0.5,0-0.9,0.4-0.9,0.9s0.4,0.9,0.9,0.9h19.3c0.5,0,0.9-0.4,0.9-0.9S27.5,19.5,27,19.5z"/>
	<path class="st0" d="M4.4,8.9H0.9C0.4,8.9,0,9.3,0,9.8v3.5c0,0.5,0.4,0.9,0.9,0.9h3.5c0.5,0,0.9-0.4,0.9-0.9V9.8
		C5.3,9.3,4.9,8.9,4.4,8.9z M3.5,12.4H1.8v-1.8h1.8L3.5,12.4L3.5,12.4z"/>
	<path class="st0" d="M4.4,0H0.9C0.4,0,0,0.4,0,0.9v3.5c0,0.5,0.4,0.9,0.9,0.9h3.5c0.5,0,0.9-0.4,0.9-0.9V0.9C5.3,0.4,4.9,0,4.4,0z
		 M3.5,3.5H1.8V1.8h1.8L3.5,3.5L3.5,3.5z"/>
	<path class="st0" d="M4.4,17.7H0.9c-0.5,0-0.9,0.4-0.9,0.9v3.5C0,22.6,0.4,23,0.9,23h3.5c0.5,0,0.9-0.4,0.9-0.9v-3.5
		C5.3,18.1,4.9,17.7,4.4,17.7z M3.5,21.2H1.8v-1.8h1.8L3.5,21.2L3.5,21.2z"/>
</g>
</svg>
