<svg id="Layer_1" xmlns="http://www.w3.org/2000/svg" viewBox="0 0 28 23"><path class="st0" d="M7.8 3.5h19.3c.5 0 .9-.4.9-.9s-.4-.9-.9-.9H7.8c-.5.1-.9.5-.9 1s.4.8.9.8zM27 10.6H7.8c-.5 0-.9.4-.9.9s.4.9.9.9h19.3c.5 0 .9-.4.9-.9s-.5-.9-1-.9zM27 19.5H7.8c-.5 0-.9.4-.9.9s.4.9.9.9h19.3c.5 0 .9-.4.9-.9s-.5-.9-1-.9zM4.4 8.9H.9c-.5 0-.9.4-.9.9v3.5c0 .5.4.9.9.9h3.5c.5 0 .9-.4.9-.9V9.8c0-.5-.4-.9-.9-.9zm-.9 3.5H1.8v-1.8h1.8l-.1 1.8zM4.4 0H.9C.4 0 0 .4 0 .9v3.5c0 .5.4.9.9.9h3.5c.5 0 .9-.4.9-.9V.9c0-.5-.4-.9-.9-.9zm-.9 3.5H1.8V1.8h1.8l-.1 1.7zM4.4 17.7H.9c-.5 0-.9.4-.9.9v3.5c0 .5.4.9.9.9h3.5c.5 0 .9-.4.9-.9v-3.5c0-.5-.4-.9-.9-.9zm-.9 3.5H1.8v-1.8h1.8l-.1 1.8z"/></svg>
