<?xml version="1.0" encoding="utf-8"?>
<!-- Generator: Adobe Illustrator 19.2.1, SVG Export Plug-In . SVG Version: 6.00 Build 0)  -->
<svg version="1.1" id="Layer_1" xmlns="http://www.w3.org/2000/svg" xmlns:xlink="http://www.w3.org/1999/xlink" x="0px" y="0px"
	 viewBox="0 0 30 27" style="enable-background:new 0 0 30 27;" xml:space="preserve">

<g>
	<path class="st0" d="M15.9,16.9V9.3c0-0.5-0.4-0.9-0.9-0.9c-0.5,0-0.9,0.4-0.9,0.9l0,7.6c-0.5,0.1-1,0.4-1.4,0.8
		c-1.3,1.3-1.3,3.3,0,4.6c1.3,1.3,3.4,1.3,4.6,0c1.3-1.3,1.3-3.3,0-4.6C16.9,17.3,16.4,17,15.9,16.9z M16,21c-0.5,0.5-1.4,0.5-2,0
		c-0.5-0.5-0.5-1.4,0-2c0.5-0.5,1.4-0.5,2,0C16.5,19.6,16.5,20.5,16,21z"/>
	<path class="st0" d="M15,6.5c0.5,0,0.9-0.4,0.9-0.9V3.7c0-0.5-0.4-0.9-0.9-0.9c-0.5,0-0.9,0.4-0.9,0.9v1.9
		C14.1,6.1,14.5,6.5,15,6.5z"/>
	<path class="st0" d="M5.6,14H3.8c-0.5,0-0.9,0.4-0.9,0.9c0,0.5,0.4,0.9,0.9,0.9h1.9c0.5,0,0.9-0.4,0.9-0.9C6.6,14.4,6.1,14,5.6,14z
		"/>
	<path class="st0" d="M26.3,14h-1.9c-0.5,0-0.9,0.4-0.9,0.9c0,0.5,0.4,0.9,0.9,0.9h1.9c0.5,0,0.9-0.4,0.9-0.9
		C27.2,14.4,26.8,14,26.3,14z"/>
	<path class="st0" d="M23.6,6.3c-0.4-0.4-1-0.4-1.3,0L21,7.7c-0.4,0.4-0.4,1,0,1.3c0.2,0.2,0.4,0.3,0.7,0.3c0.2,0,0.5-0.1,0.7-0.3
		l1.3-1.3C24,7.3,24,6.7,23.6,6.3z"/>
	<path class="st0" d="M7.7,6.3C7.3,6,6.7,6,6.4,6.3C6,6.7,6,7.3,6.4,7.7L7.7,9c0.2,0.2,0.4,0.3,0.7,0.3S8.9,9.2,9,9
		c0.4-0.4,0.4-1,0-1.3L7.7,6.3z"/>
	<path class="st0" d="M15,0C6.7,0,0,6.7,0,14.9c0,4.7,2.2,9.1,6,11.9C6.2,26.9,6.4,27,6.6,27h16.9c0.2,0,0.4-0.1,0.6-0.2
		c3.8-2.8,6-7.2,6-11.9C30,6.7,23.3,0,15,0z M23.1,25.1H6.9c-3.2-2.5-5-6.2-5-10.2c0-7.2,5.9-13,13.1-13s13.1,5.8,13.1,13
		C28.1,18.9,26.3,22.6,23.1,25.1z"/>
</g>
</svg>
