<?xml version="1.0" encoding="utf-8"?>
<!-- Generator: Adobe Illustrator 19.2.1, SVG Export Plug-In . SVG Version: 6.00 Build 0)  -->
<svg version="1.1" id="Layer_1" xmlns="http://www.w3.org/2000/svg" xmlns:xlink="http://www.w3.org/1999/xlink" x="0px" y="0px"
	 viewBox="0 0 28 13" style="enable-background:new 0 0 28 13;" xml:space="preserve">

<path class="st0" d="M26.1,1.9C25,0.7,23.4,0,21.7,0c-1.7,0-3.3,0.7-4.5,1.9c0,0,0,0,0,0c0,0,0,0,0,0L9.6,9.8c0,0,0,0,0,0
	c-0.9,0.9-2,1.4-3.2,1.4S4,10.7,3.1,9.8C1.3,8,1.3,5,3.1,3.2c0.9-0.9,2-1.4,3.2-1.4s2.4,0.5,3.2,1.4c0,0,0,0,0,0c0,0,0,0,0,0
	l1.6,1.5c0.2,0.2,0.4,0.2,0.6,0.2c0.2,0,0.5-0.1,0.6-0.3c0.3-0.4,0.3-0.9-0.1-1.3l-1.6-1.5c0,0,0,0,0,0C9.6,0.7,8,0,6.3,0
	C4.6,0,3,0.7,1.9,1.9c-2.5,2.5-2.5,6.7,0,9.2C3,12.3,4.6,13,6.3,13c1.7,0,3.3-0.7,4.5-1.9c0,0,0,0,0,0c0,0,0,0,0,0l7.6-7.9
	c0,0,0,0,0,0c0.9-0.9,2-1.4,3.2-1.4s2.4,0.5,3.2,1.4c1.8,1.8,1.8,4.8,0,6.7c-0.9,0.9-2,1.4-3.2,1.4s-2.4-0.5-3.2-1.4c0,0,0,0,0,0
	c0,0,0,0,0,0l-1.6-1.5C16.4,8,15.9,8,15.5,8.4c-0.3,0.4-0.3,0.9,0.1,1.3l1.6,1.5c0,0,0,0,0,0c1.2,1.2,2.8,1.9,4.4,1.9
	c1.7,0,3.3-0.7,4.5-1.9C28.6,8.6,28.6,4.4,26.1,1.9z"/>
</svg>
