<svg xmlns="http://www.w3.org/2000/svg" viewBox="0 0 28 13"><path d="M26.1 1.9C25 .7 23.4 0 21.7 0c-1.7 0-3.3.7-4.5 1.9L9.6 9.8c-.9.9-2 1.4-3.2 1.4S4 10.7 3.1 9.8C1.3 8 1.3 5 3.1 3.2c.9-.9 2-1.4 3.2-1.4s2.4.5 3.2 1.4l1.6 1.5c.2.2.4.2.6.2.2 0 .5-.1.6-.3.3-.4.3-.9-.1-1.3l-1.6-1.5C9.6.7 8 0 6.3 0 4.6 0 3 .7 1.9 1.9c-2.5 2.5-2.5 6.7 0 9.2C3 12.3 4.6 13 6.3 13c1.7 0 3.3-.7 4.5-1.9l7.6-7.9c.9-.9 2-1.4 3.2-1.4s2.4.5 3.2 1.4c1.8 1.8 1.8 4.8 0 6.7-.9.9-2 1.4-3.2 1.4s-2.4-.5-3.2-1.4l-1.6-1.5c-.4-.4-.9-.4-1.3 0-.3.4-.3.9.1 1.3l1.6 1.5c1.2 1.2 2.8 1.9 4.4 1.9 1.7 0 3.3-.7 4.5-1.9 2.5-2.6 2.5-6.8 0-9.3z" fill="#231f20"/></svg>