<svg xmlns="http://www.w3.org/2000/svg" viewBox="0 0 15 28"><path d="M3.1 28c-.1 0-.3 0-.4-.1-.4-.2-.6-.6-.5-1l1.5-7.7h-2c-.3 0-.6-.1-.7-.4-.1-.2-.2-.5 0-.8l2.5-5.8H.9c-.3 0-.5-.1-.7-.3-.2-.2-.2-.5-.2-.8L3.1.6c.1-.3.5-.6.9-.6h10.1c.3 0 .6.2.8.4.1.3.1.6 0 .9l-3.7 6.6h2.5c.3 0 .6.2.8.4.2.3.1.6 0 .9L11 14.9h1.4c.3 0 .6.2.8.5.1.3.1.7-.1.9L3.8 27.7c-.2.2-.5.3-.7.3zm0-10.5h1.7c.3 0 .5.1.7.3.2.2.2.5.2.7l-1 5.3 5.9-7.2H9.4c-.3 0-.6-.2-.8-.4-.2-.3-.1-.6 0-.9l3.5-5.7H9.7c-.3 0-.6-.2-.8-.4-.2-.3-.2-.6 0-.9l3.7-6.6h-8L2 10.5h2.7c.3 0 .6.1.7.4.2.2.2.6.1.8l-2.4 5.8z"/></svg>
