<svg xmlns="http://www.w3.org/2000/svg" viewBox="0 0 108 150"><path d="M80.2 31.6L62.6 41.8l-2.2-1.2V38L78 28l-2-3.4-15.6 9v-3.2c0-1.2-.2-2.4-.8-3.4s-1.2-2-2.2-2.8c-.6-.4-.8-1-1-1.6s-.2-1.4.2-2c.2-.6.6-1.2 1.2-1.6.2-.2.2-.4.4-.6v-.6l-3.2-9c0-.2-.2-.2-.2-.4-.2 0-.2-.2-.4-.2s-.2 0-.4.2c-.2 0-.2.2-.2.4l-3.2 9v.6c0 .2.2.4.4.6.6.4 1 1 1.2 1.6s.2 1.4.2 2c-.2.6-.6 1.2-1 1.6-1 .8-1.6 1.8-2.2 2.8-.4 1-.8 2.2-.8 3.4v3.2l-15.6-9-2 3.4 17.6 10.2v2.4l-2.2 1.2-17.6-10.2-2 3.4 15.6 9-2.8 1.6c-1 .6-2 1.4-2.6 2.4s-1.2 2.2-1.4 3.2c-.2.6-.4 1.2-1 1.8-.4.4-1 .8-1.8.8-.6.2-1.4 0-2-.2-.2 0-.4-.2-.6 0-.2 0-.4.2-.6.4l-6.2 7.2c0 .2-.2.2-.2.4v.4c0 .2.2.2.2.2h.4l9.4-1.8c.2 0 .4-.2.6-.4.2-.2.2-.4.2-.6 0-.6.4-1.4.8-1.8.4-.6 1-.8 1.6-1s1.4-.2 2 0c1.2.4 2.4.6 3.6.4 1.2-.2 2.4-.4 3.4-1l2.8-1.6v18.2h3.8V52.2L54 51l2.2 1.2v20.4H60V54.4l2.8 1.6c1 .6 2.2 1 3.4 1 1.2.2 2.4 0 3.6-.4.6-.2 1.4-.2 2 0s1.2.6 1.6 1c.4.6.6 1.2.8 1.8 0 .2.2.4.2.6.2.2.4.2.6.4l9.4 1.8h.4c.2 0 .2-.2.2-.2v-.4c0-.2 0-.2-.2-.4L78.6 54c-.2-.2-.4-.4-.6-.4h-.6c-.6.2-1.2.4-2 .2-.6-.2-1.2-.4-1.8-.8-.4-.4-.8-1-1-1.8-.2-1.2-.6-2.4-1.4-3.2-.6-1-1.6-1.8-2.6-2.4L66.4 44 82 35l-1.8-3.4zM48.4 50l-5.2 3c-.4.2-1 .4-1.6.2s-1-.6-1.2-1c-.4-.6-.4-1.2-.4-1.6.2-.6.6-1 1-1.2l5.2-3 2.2 1.2V50zm3.8-20.2c0-.6.2-1.2.6-1.4.4-.4 1-.6 1.4-.6s1.2.2 1.4.6c.4.4.6 1 .6 1.4v6L54 37l-2.2-1.2v-6h.4zm4.6 15.6l-2.4 1.4-2.4-1.4v-2.8l2.4-1.4 2.4 1.4v2.8zm10.8 3.8c.4.2.8.8 1 1.2.2.6 0 1.2-.2 1.6-.2.4-.8.8-1.2 1-.6.2-1.2 0-1.6-.2L60.4 50v-2.4l2.2-1.2 5 2.8z"/><path d="M54.4 88c-11.6 0-23-4.8-31.2-12.8S10.4 55.6 10.4 44 15 21.2 23.2 12.8C31.4 4.6 42.8 0 54.4 0s23 4.6 31 12.8C93.6 21 98.2 32.4 98.2 44s-4.6 23-12.8 31.2C77.2 83.2 66 88 54.4 88zm0-83.2C44 4.8 34 9 26.8 16.4 19.4 23.6 15.2 33.8 15.2 44s4.2 20.4 11.4 27.6S44 83 54.2 83s20.4-4.2 27.6-11.4C89 64.4 93.2 54.2 93.2 44S89 23.6 81.8 16.4C74.8 9 64.6 4.8 54.4 4.8zM74.4 126v-26h4.8v10h5.2v-10h4.8v26h-4.8v-11.4h-5.2V126zM5.2 116L0 100h4.8L8 110l3.6-10H16l-5.4 15.4V126H5.2zM33.4 126h4.2v-19.6l3.6 17h4l3.2-17.4v20h4.8v-26h-7.6l-2.2 12.4-2.6-12.4h-7.4zM97.4 115.6l2-11.6 2 11.6h-4zm6.2-15.6h-7.4l-5 26h4.4l1-6h5.4l1 6h5l-4.4-26zM61.6 115.6l2-11.6 2 11.6h-4zm6.2-15.6h-7.4l-5 26h4.4l1-6h5.4l1 6H72l-4.2-26zM20.6 115.6l2-11.6 2 11.6h-4zm6-15.6h-7.2l-5 26h4.4l1-6h5.4l1 6H31l-4.4-26z"/><g><path d="M24.5 150c-.9 0-1.7-.2-2.4-.5-.6-.3-1.1-.8-1.4-1.4-.3-.6-.5-1.4-.5-2.3l2.5-.4c0 .5.1 1 .2 1.4.1.4.3.7.6.9.3.2.6.3 1 .3.5 0 .8-.1 1-.4.2-.2.3-.5.3-.9 0-.6-.2-1.1-.5-1.5-.3-.4-.7-.8-1.2-1.1l-2-1.5c-.6-.4-1-.9-1.3-1.4s-.5-1.1-.5-1.9c0-1.1.4-1.9 1.1-2.5.7-.6 1.7-.9 3-.9.7 0 1.3.1 1.8.3.5.2.9.5 1.2.8.3.3.5.7.6 1.2.1.4.2.9.3 1.4l-2.4.4c0-.4-.1-.8-.2-1.1-.1-.3-.2-.6-.4-.8-.2-.2-.5-.3-.9-.3s-.8.1-1 .4c-.2.2-.3.5-.3.9 0 .5.1.8.3 1.1.2.3.5.6.9.9l2 1.5c.6.5 1.2 1 1.7 1.7.5.6.7 1.4.7 2.3 0 .7-.2 1.2-.5 1.7s-.8.9-1.4 1.2c-.8.4-1.5.5-2.3.5zM34.4 149.8V138h-2.5v-1.8h7.8v1.8h-2.5v11.8h-2.8zM43.9 149.8v-13.7h3.7c1.1 0 1.9.1 2.7.3.7.2 1.3.6 1.7 1.1.4.5.6 1.2.6 2.2 0 .6-.1 1-.2 1.5-.1.4-.3.8-.6 1.1-.3.3-.7.5-1.1.7l2.2 6.7H50l-1.9-6.3h-1.3v6.3h-2.9zm2.8-7.8h.9c.6 0 1-.1 1.3-.2.3-.1.6-.4.7-.7.1-.3.2-.7.2-1.2 0-.7-.1-1.2-.4-1.5-.3-.3-.8-.5-1.7-.5h-1v4.1zM57.4 149.8v-13.7H64v1.8h-3.7v3.9h2.9v1.7h-2.9v4.5H64v1.7h-6.6zM68.3 149.8v-13.7h6.6v1.8h-3.7v3.9h2.9v1.7h-2.9v4.5h3.7v1.7h-6.6zM80.9 149.8V138h-2.5v-1.8h7.8v1.8h-2.5v11.8h-2.8z"/></g></svg>