<svg xmlns="http://www.w3.org/2000/svg" viewBox="0 0 214 47"><path d="M163.6 44V3h7.1v15.7h7.8V3h7.2v41h-7.2V26h-7.8v18h-7.1zM59.9 28.1L52 3h7.1l4.8 16 5.4-16h6.6l-8.1 24.3V44h-7.9V28.1zM102 44h6.3V13.1l5.5 26.8h5.9l4.8-27.3V44h7.4V3h-11.5L117 22.5 113.1 3H102v41zM198.2 27.6l3-18.3 2.9 18.3h-5.9zM207.3 3h-11l-7.4 41h6.6l1.6-9.5h8.2l1.5 9.5h7.2l-6.7-41zM144.4 27.6l3-18.3 2.9 18.3h-5.9zM153.6 3h-11l-7.4 41h6.6l1.6-9.5h8.2L153 44h7.2l-6.6-41zM82.8 27.6l3-18.3 2.9 18.3h-5.9zM92 3H81l-7.4 41h6.6l1.6-9.5H90l1.5 9.5h7.2L92 3z"/><g><path d="M37.3 16.9l-9.4 5.4-1.1-.7v-1.3l9.4-5.4-1-1.8-8.4 4.8v-1.7c0-.6-.1-1.3-.4-1.9-.3-.6-.7-1.1-1.1-1.5-.3-.2-.5-.5-.6-.9-.1-.3-.1-.7.1-1.1.1-.3.4-.6.6-.8.1-.1.2-.2.2-.3v-.4l-1.7-4.8c0-.1-.1-.1-.1-.2-.1 0-.1-.1-.2-.1s-.1 0-.2.1c-.1 0-.1.1-.1.2l-1.7 4.8v.4c0 .1.1.2.2.3.3.2.5.5.6.8.1.3.1.7.1 1.1-.1.3-.3.7-.6.9-.5.4-.9.9-1.1 1.5-.3.6-.4 1.2-.4 1.9v1.7L12 13.1l-1 1.8 9.4 5.4v1.3l-1.1.7-9.4-5.4-1 1.8 8.4 4.8-1.5.9c-.6.3-1 .8-1.4 1.3-.4.5-.6 1.1-.7 1.8-.1.3-.2.7-.5.9-.3.2-.6.4-.9.5-.4.1-.7 0-1-.1-.1-.1-.2-.1-.4 0-.1 0-.2.1-.3.2L7 32.6c0 .1-.1.1-.1.2v.2c0 .1.1.1.2.1h.2l5-.9c.1 0 .2-.1.3-.2.1-.1.1-.2.1-.3 0-.4.2-.7.4-1 .2-.3.5-.5.9-.6.3-.1.7-.1 1.1 0 .6.2 1.3.3 1.9.2.6-.1 1.3-.3 1.8-.6l1.5-.9v9.7h2.1V27.9l1.1-.7 1.1.7v10.9h2.1V29l1.5.9c.6.3 1.2.5 1.8.6.6.1 1.3 0 1.9-.2.3-.1.7-.1 1.1 0 .3.1.7.3.9.6.2.3.4.6.4 1 0 .1.1.2.1.3.1.1.2.2.3.2l5 .9h.2c.1 0 .1-.1.2-.1 0-.1.1-.1 0-.2 0-.1 0-.1-.1-.2L36.7 29c-.1-.1-.2-.2-.3-.2H36c-.3.2-.7.2-1 .1-.4-.1-.7-.2-.9-.5-.3-.2-.4-.6-.5-.9-.1-.6-.4-1.2-.7-1.8-.4-.5-.9-1-1.4-1.3l-1.5-.9 8.4-4.8-1.1-1.8zm-17 9.8l-2.8 1.6c-.3.1-.6.2-.9.1-.3-.1-.5-.3-.7-.5-.1-.3-.2-.6-.1-.9.1-.3.3-.5.5-.7l2.8-1.6 1.1.7v1.3zm2.1-10.8c0-.3.1-.6.3-.8.2-.2.5-.3.8-.3s.6.1.8.3c.2.2.3.5.3.8v3.2l-1.1.7-1.1-.7v-3.2zm2.4 8.3l-1.3.8-1.3-.8v-1.5l1.3-.8 1.3.8v1.5zm5.8 2.1c.3.1.5.4.5.7.1.3 0 .6-.1.9-.1.3-.4.5-.7.5-.3.1-.6 0-.9-.1l-2.8-1.6v-1.3l1.1-.7 2.9 1.6z"/><path d="M23.5 47c-6.2 0-12.2-2.5-16.6-6.9S0 29.7 0 23.5c0-6.2 2.5-12.2 6.9-16.6C11.3 2.5 17.3 0 23.5 0c6.2 0 12.2 2.5 16.6 6.9 4.4 4.4 6.9 10.4 6.9 16.6 0 6.2-2.5 12.2-6.9 16.6-4.4 4.4-10.4 6.9-16.6 6.9zm0-44.4C18 2.6 12.6 4.8 8.7 8.7 4.8 12.6 2.6 18 2.6 23.5s2.2 10.9 6.1 14.8c3.9 3.9 9.3 6.1 14.8 6.1s10.9-2.2 14.8-6.1c3.9-3.9 6.1-9.3 6.1-14.8s-2.2-10.9-6.1-14.8C34.4 4.8 29 2.6 23.5 2.6z"/></g></svg>